<svg width="213" height="240" viewBox="0 0 213 240" fill="none" xmlns="http://www.w3.org/2000/svg">
<g filter="url(#filter0_d_2_3325)">
<circle cx="106.5" cy="104.5" r="56.5" fill="white"/>
</g>
<path d="M92 103.125H95.75V115H92V103.125Z" fill="#216E7A" fill-opacity="0.8"/>
<path d="M122.267 108.009C121.681 107.576 120.899 107.45 120.12 107.666L110.564 110.308C110.682 110.017 110.75 109.702 110.75 109.369C110.75 107.994 109.629 106.875 108.25 106.875H102.389C101.973 106.25 100.913 104.375 99.5 104.375H97V103.75C97 102.716 96.1588 101.875 95.125 101.875H92.625C91.5912 101.875 90.75 102.716 90.75 103.75V114.375C90.75 115.409 91.5912 116.25 92.625 116.25H95.125C96.1588 116.25 97 115.409 97 114.375V113.905L104.587 119.031C105.539 119.676 106.648 120 107.759 120C108.785 120 109.813 119.724 110.722 119.168L122.081 112.23C122.802 111.791 123.25 110.992 123.25 110.147V109.951C123.25 109.182 122.892 108.474 122.267 108.009ZM95.75 114.375C95.75 114.72 95.4694 115 95.125 115H94.5V112.5H93.25V115H92.625C92.2806 115 92 114.72 92 114.375V103.75C92 103.405 92.2806 103.125 92.625 103.125H95.125C95.4694 103.125 95.75 103.406 95.75 103.75V114.375ZM122 110.147C122 110.559 121.781 110.949 121.429 111.164L110.071 118.101C108.593 119.003 106.716 118.962 105.288 117.996L97 112.397V105.625H99.5C100.162 105.625 101.043 106.896 101.43 107.756L101.596 108.125H108.25C108.939 108.125 109.5 108.683 109.5 109.369C109.5 110.061 108.939 110.625 108.25 110.625H102V111.875H108.25H109.5L120.452 108.871C120.853 108.759 121.253 108.813 121.521 109.014C121.826 109.239 122 109.581 122 109.951V110.147Z" fill="#216E7A"/>
<path d="M111.375 103.75C113.019 103.75 119.5 99.6506 119.5 94.375C119.5 91.9631 117.538 90 115.125 90C113.536 90 112.141 90.8519 111.375 92.1231C110.609 90.8519 109.214 90 107.625 90C105.213 90 103.25 91.9631 103.25 94.375C103.25 99.6506 109.731 103.75 111.375 103.75ZM107.625 91.25C109.348 91.25 110.75 92.5 110.75 94.375H112C112 92.5 113.402 91.25 115.125 91.25C116.848 91.25 118.25 92.6519 118.25 94.375C118.25 99.1019 112.201 102.5 111.375 102.5C110.549 102.5 104.5 99.1019 104.5 94.375C104.5 92.6519 105.902 91.25 107.625 91.25Z" fill="#216E7A"/>
<defs>
<filter id="filter0_d_2_3325" x="0" y="0" width="213" height="213" filterUnits="userSpaceOnUse" color-interpolation-filters="sRGB">
<feFlood flood-opacity="0" result="BackgroundImageFix"/>
<feColorMatrix in="SourceAlpha" type="matrix" values="0 0 0 0 0 0 0 0 0 0 0 0 0 0 0 0 0 0 127 0" result="hardAlpha"/>
<feOffset dy="2"/>
<feGaussianBlur stdDeviation="25"/>
<feColorMatrix type="matrix" values="0 0 0 0 0 0 0 0 0 0 0 0 0 0 0 0 0 0 0.06 0"/>
<feBlend mode="normal" in2="BackgroundImageFix" result="effect1_dropShadow_2_3325"/>
<feBlend mode="normal" in="SourceGraphic" in2="effect1_dropShadow_2_3325" result="shape"/>
</filter>
</defs>
</svg>
