<svg width="213" height="240" viewBox="0 0 213 240" fill="none" xmlns="http://www.w3.org/2000/svg">
<g filter="url(#filter0_d_2_3324)">
<circle cx="106.5" cy="104.5" r="56.5" fill="white"/>
</g>
<path opacity="0.8" d="M107.888 105.912C107.41 105.393 106.59 105.393 106.112 105.912L102.844 109.461C101.775 110.622 102.598 112.5 104.177 112.5H109.823C111.402 112.5 112.225 110.622 111.155 109.461L107.888 105.912Z" fill="#216E7A"/>
<path opacity="0.8" d="M112.625 106.875C113.661 106.875 114.5 106.036 114.5 105C114.5 103.964 113.661 103.125 112.625 103.125C111.589 103.125 110.75 103.964 110.75 105C110.75 106.036 111.589 106.875 112.625 106.875Z" fill="#216E7A"/>
<path opacity="0.8" d="M101.375 106.875C102.411 106.875 103.25 106.036 103.25 105C103.25 103.964 102.411 103.125 101.375 103.125C100.339 103.125 99.5 103.964 99.5 105C99.5 106.036 100.339 106.875 101.375 106.875Z" fill="#216E7A"/>
<path opacity="0.8" d="M107 104.375C108.036 104.375 108.875 103.536 108.875 102.5C108.875 101.464 108.036 100.625 107 100.625C105.964 100.625 105.125 101.464 105.125 102.5C105.125 103.536 105.964 104.375 107 104.375Z" fill="#216E7A"/>
<path d="M115.125 90.0657C111.5 90.0657 108.299 92.4782 107 95.9394C105.701 92.4782 102.5 90.0657 98.875 90.0657C94.05 90.0657 90.125 94.2369 90.125 99.3638C90.125 109.376 98.5112 116.092 103.511 119.204C104.587 119.874 105.793 120.209 107 120.209C108.207 120.209 109.413 119.874 110.489 119.204C115.489 116.092 123.875 109.376 123.875 99.3638C123.875 94.2369 119.95 90.0657 115.125 90.0657ZM109.829 118.144C108.084 119.23 105.916 119.229 104.171 118.144C99.3925 115.168 91.375 108.771 91.375 99.3638C91.375 94.9257 94.7394 91.3157 98.875 91.3157C102.573 91.3157 105.761 94.2788 106.288 98.2075L106.361 98.75H107.639L107.712 98.2082C108.239 94.2794 111.427 91.3157 115.125 91.3157C119.261 91.3157 122.625 94.9257 122.625 99.3638C122.625 108.771 114.608 115.168 109.829 118.144Z" fill="#216E7A"/>
<path d="M115.75 93.125V94.375C117.818 94.375 119.5 96.0569 119.5 98.125H120.75C120.75 95.3681 118.507 93.125 115.75 93.125Z" fill="#216E7A"/>
<path d="M115.75 95.625V96.875C116.439 96.875 117 97.4356 117 98.125H118.25C118.25 96.7462 117.129 95.625 115.75 95.625Z" fill="#216E7A"/>
<defs>
<filter id="filter0_d_2_3324" x="0" y="0" width="213" height="213" filterUnits="userSpaceOnUse" color-interpolation-filters="sRGB">
<feFlood flood-opacity="0" result="BackgroundImageFix"/>
<feColorMatrix in="SourceAlpha" type="matrix" values="0 0 0 0 0 0 0 0 0 0 0 0 0 0 0 0 0 0 127 0" result="hardAlpha"/>
<feOffset dy="2"/>
<feGaussianBlur stdDeviation="25"/>
<feColorMatrix type="matrix" values="0 0 0 0 0 0 0 0 0 0 0 0 0 0 0 0 0 0 0.06 0"/>
<feBlend mode="normal" in2="BackgroundImageFix" result="effect1_dropShadow_2_3324"/>
<feBlend mode="normal" in="SourceGraphic" in2="effect1_dropShadow_2_3324" result="shape"/>
</filter>
</defs>
</svg>
