<svg width="213" height="213" viewBox="0 0 213 213" fill="none" xmlns="http://www.w3.org/2000/svg">
<g filter="url(#filter0_d_2_3441)">
<circle cx="106.5" cy="104.5" r="56.5" fill="white"/>
</g>
<path opacity="0.8" d="M108.876 111.25C108.306 110.49 107.398 109.999 106.375 109.999C104.649 109.999 103.25 111.398 103.25 113.124C103.25 114.849 104.649 116.249 106.375 116.249C106.819 116.249 107.243 116.156 107.625 115.989L105.751 113.124L108.876 111.25Z" fill="#216E7A"/>
<path d="M121.375 93.125H118.875C117.841 93.125 117 93.9644 117 94.9981V96.25H110.256L99.2669 91.4644C98.0481 90.9344 96.5794 91.4313 95.9975 92.5756C95.7137 93.1331 95.6719 93.7613 95.8806 94.3475C96.1 94.9625 96.5631 95.4531 97.185 95.7263L98.3737 96.25H97.625H95.75H93.25C91.8712 96.25 90.75 97.3713 90.75 98.75C90.75 100.129 91.8712 101.25 93.25 101.25H95.75H97.625H103.361C101.072 103.125 99.5 105.228 99.5 108.124C99.5 109.686 99.9456 111.196 100.786 112.505C100.763 112.708 100.75 112.914 100.75 113.124C100.75 116.226 103.273 118.749 106.375 118.749C108.679 118.749 110.726 117.369 111.591 115.233L111.566 115.223C114.058 113.833 115.75 111.173 115.75 108.123V106.875H117.116C117.374 107.5 118.062 108.125 118.875 108.125H121.375C122.409 108.125 123.25 107.283 123.25 106.248V94.9981C123.25 93.9644 122.409 93.125 121.375 93.125ZM97.6887 94.5825C97.385 94.4488 97.1606 94.2156 97.0581 93.9281C96.9663 93.6694 96.985 93.39 97.1106 93.1431C97.4 92.5769 98.1425 92.3394 98.7675 92.6113L107.124 96.25H101.477L97.6887 94.5825ZM92 98.75C92 98.0606 92.5606 97.5 93.25 97.5H93.5975C93.3825 98.125 93.25 98.2925 93.25 98.75C93.25 99.2075 93.3825 100 93.5975 100H93.25C92.5606 100 92 99.4394 92 98.75ZM106.375 117.498C103.963 117.498 102 115.535 102 113.123C102 110.711 103.963 108.748 106.375 108.748C107.704 108.748 108.952 109.363 109.776 110.38C109.214 110.915 108.459 111.248 107.625 111.248C106.246 111.248 105.125 112.369 105.125 113.748C105.125 115.127 106.246 116.248 107.625 116.248C108.34 116.248 109.03 116.146 109.691 115.972C108.876 116.924 107.681 117.498 106.375 117.498ZM110.508 109.325C109.453 108.182 107.961 107.498 106.375 107.498C105.729 107.498 105.11 107.613 104.531 107.815C104.689 106.238 106.007 104.998 107.625 104.998C109.348 104.998 110.75 106.4 110.75 108.123C110.75 108.549 110.663 108.955 110.508 109.325ZM114.5 105.625V106.873V108.123C114.5 111.914 111.416 114.998 107.625 114.998C106.936 114.998 106.375 114.438 106.375 113.748C106.375 113.059 106.936 112.498 107.625 112.498C110.037 112.498 112 110.535 112 108.123C112 105.711 110.037 103.748 107.625 103.748C105.213 103.748 103.25 105.711 103.25 108.123C103.25 108.249 103.228 108.372 103.191 108.491C102.367 109.059 101.705 109.843 101.278 110.759C100.933 109.928 100.75 109.036 100.75 108.123C100.75 104.333 103.875 101.248 107.625 101.248V100C107.414 100 97.625 100 97.625 100H95.75C95.0606 100 94.5 99.4394 94.5 98.75C94.5 98.0606 95.0606 97.5 95.75 97.5H97.625H117V105.625H115.75H114.5ZM122 106.248C122 106.593 121.72 106.875 121.375 106.875H120.75V103.125H119.5V106.875H118.875C118.53 106.875 118.25 106.593 118.25 106.248V94.9981C118.25 94.6538 118.53 94.375 118.875 94.375H121.375C121.72 94.375 122 94.6538 122 94.9981V106.248Z" fill="#216E7A"/>
<defs>
<filter id="filter0_d_2_3441" x="0" y="0" width="213" height="213" filterUnits="userSpaceOnUse" color-interpolation-filters="sRGB">
<feFlood flood-opacity="0" result="BackgroundImageFix"/>
<feColorMatrix in="SourceAlpha" type="matrix" values="0 0 0 0 0 0 0 0 0 0 0 0 0 0 0 0 0 0 127 0" result="hardAlpha"/>
<feOffset dy="2"/>
<feGaussianBlur stdDeviation="25"/>
<feColorMatrix type="matrix" values="0 0 0 0 0.72549 0 0 0 0 0.835294 0 0 0 0 0.85098 0 0 0 0.6 0"/>
<feBlend mode="normal" in2="BackgroundImageFix" result="effect1_dropShadow_2_3441"/>
<feBlend mode="normal" in="SourceGraphic" in2="effect1_dropShadow_2_3441" result="shape"/>
</filter>
</defs>
</svg>
