<svg width="320" height="904" viewBox="0 0 320 904" fill="none" xmlns="http://www.w3.org/2000/svg">
<path d="M164.889 20H-15.3174C-38.3381 20 -57 38.662 -57 61.6826V787.631C-57 804.685 -46.611 820.019 -30.7724 826.342L83.6628 872.029C88.5791 873.992 93.8242 875 99.1178 875H285.149C294.123 875 302.858 872.104 310.054 866.742L541.639 694.182C555.172 684.098 561.289 666.85 557.133 650.493L429.075 146.51C424.379 128.031 407.743 115.093 388.676 115.093H313.529C304.103 115.093 294.955 111.898 287.578 106.029L190.84 29.0641C183.464 23.1952 174.316 20 164.889 20Z" fill="#2A8086"/>
<path opacity="0.3" d="M168.505 298H-15.3174C-38.3381 298 -57 316.662 -57 339.683V830.567C-57 849.217 -44.6117 865.597 -26.6665 870.675L85.5394 902.425C89.2319 903.47 93.0511 904 96.8886 904H288.64C295.425 904 302.107 902.344 308.106 899.176L532.026 780.918C550.371 771.229 558.799 749.524 551.797 729.994L430.992 393.015C425.054 376.45 409.352 365.399 391.755 365.399H309.913C302.74 365.399 295.688 363.548 289.439 360.024L188.979 303.375C182.731 299.851 175.679 298 168.505 298Z" fill="#2A8086"/>
<path opacity="0.3" d="M163.141 0H-15.3174C-38.3381 0 -57 18.6619 -57 41.6826V781.972C-57 796.787 -49.1365 810.489 -36.3448 817.962L77.3981 884.417C84.7343 888.703 93.2052 890.645 101.676 889.982L292.289 875.073C296.715 874.727 301.057 873.676 305.152 871.959L531.97 776.889C550.525 769.112 560.877 749.191 556.576 729.536L428.264 143.187C424.076 124.052 407.132 110.415 387.545 110.415H315.277C304.793 110.415 294.694 106.464 286.993 99.3497L191.425 11.065C183.724 3.95085 173.625 0 163.141 0Z" fill="#2A8086"/>
</svg>
