<svg width="213" height="213" viewBox="0 0 213 213" fill="none" xmlns="http://www.w3.org/2000/svg">
<g filter="url(#filter0_d_2_3443)">
<circle cx="106.5" cy="104.5" r="56.5" fill="white"/>
</g>
<path d="M102.625 105C103.315 105 103.875 104.44 103.875 103.75C103.875 103.06 103.315 102.5 102.625 102.5C101.935 102.5 101.375 103.06 101.375 103.75C101.375 104.44 101.935 105 102.625 105Z" fill="#216E7A"/>
<path d="M111.375 105C112.065 105 112.625 104.44 112.625 103.75C112.625 103.06 112.065 102.5 111.375 102.5C110.685 102.5 110.125 103.06 110.125 103.75C110.125 104.44 110.685 105 111.375 105Z" fill="#216E7A"/>
<path d="M105.438 110C106.3 110 107 109.58 107 109.062C107 108.545 106.3 108.125 105.438 108.125C104.575 108.125 103.875 108.545 103.875 109.062C103.875 109.58 104.575 110 105.438 110Z" fill="#216E7A"/>
<path opacity="0.8" d="M119.5 103.75H117V100H119.5C120.191 100 120.75 100.559 120.75 101.25V102.5C120.75 103.191 120.191 103.75 119.5 103.75Z" fill="#216E7A"/>
<path d="M108.562 110C109.425 110 110.125 109.58 110.125 109.062C110.125 108.545 109.425 108.125 108.562 108.125C107.7 108.125 107 108.545 107 109.062C107 109.58 107.7 110 108.562 110Z" fill="#216E7A"/>
<path opacity="0.8" d="M94.5 103.75H97V100H94.5C93.8094 100 93.25 100.559 93.25 101.25V102.5C93.25 103.191 93.8094 103.75 94.5 103.75Z" fill="#216E7A"/>
<path opacity="0.8" d="M116.993 99.6499C116.806 96.3624 114.081 93.7499 110.75 93.7499C109.712 93.7499 108.775 94.1687 108.1 94.8499C107.418 95.5249 107 96.4624 107 97.4999C107 96.4624 106.581 95.5249 105.9 94.8499C105.225 94.1687 104.287 93.7499 103.25 93.7499C99.9184 93.7499 97.1934 96.3624 97.0059 99.6499C97.0934 97.0249 98.1934 94.6624 99.9246 92.9249C101.756 91.0999 104.206 89.9749 107 89.9999C109.793 89.9749 112.243 91.0999 114.075 92.9249C115.806 94.6624 116.906 97.0249 116.993 99.6499Z" fill="#216E7A"/>
<path d="M120.125 97.5H117.331C116.879 95.6182 115.918 93.8894 114.516 92.4825C112.503 90.4763 109.864 89.375 107.078 89.375C107.026 89.375 106.973 89.3744 106.922 89.375C104.136 89.375 101.496 90.4769 99.4825 92.4844C98.0813 93.8907 97.1206 95.6188 96.6694 97.5007H93.875C92.1519 97.5007 90.75 98.9025 90.75 100.626V103.126C90.75 104.849 92.1519 106.251 93.875 106.251H95.41C94.0513 107.536 93.25 109.343 93.25 111.25V114.375C93.25 117.821 96.0538 120.625 99.5 120.625H107H114.5C117.946 120.625 120.75 117.821 120.75 114.375V111.25C120.75 109.343 119.949 107.536 118.591 106.25H120.125C121.848 106.25 123.25 104.848 123.25 103.125V100.625C123.25 98.9019 121.848 97.5 120.125 97.5ZM100.366 93.3682C102.143 91.5969 104.468 90.625 106.922 90.625C106.946 90.625 106.971 90.625 106.995 90.625L107 90L107.005 90.625C109.51 90.6069 111.839 91.58 113.632 93.3663C113.872 93.6069 114.097 93.8582 114.307 94.1188C113.269 93.4882 112.051 93.125 110.75 93.125C109.161 93.125 107.766 93.9769 107 95.2482C106.234 93.9769 104.839 93.125 103.25 93.125C101.949 93.125 100.731 93.4882 99.6931 94.1188C99.9025 93.8582 100.127 93.6075 100.366 93.3682ZM93.875 105C92.8412 105 92 104.159 92 103.125V100.625C92 99.5913 92.8412 98.75 93.875 98.75H96.375V105H93.875ZM119.5 111.25V114.375C119.5 117.132 117.257 119.375 114.5 119.375H107H99.5C96.7431 119.375 94.5 117.132 94.5 114.375V111.25C94.5 109.249 95.5781 107.383 97.3131 106.378L97.5344 106.25H97.625V100C97.625 96.8988 100.149 94.375 103.25 94.375C104.973 94.375 106.375 95.7769 106.375 97.5V98.125H107.625V97.5C107.625 95.7769 109.027 94.375 110.75 94.375C113.852 94.375 116.375 96.8988 116.375 100V106.25H116.466L116.687 106.378C118.422 107.383 119.5 109.249 119.5 111.25ZM122 103.125C122 104.159 121.159 105 120.125 105H117.625V98.75H120.125C121.159 98.75 122 99.5913 122 100.625V103.125ZM102.625 107.5C104.693 107.5 106.375 105.818 106.375 103.75C106.375 101.682 104.693 100 102.625 100C100.557 100 98.875 101.682 98.875 103.75C98.875 105.818 100.557 107.5 102.625 107.5ZM102.625 101.25C104.004 101.25 105.125 102.371 105.125 103.75C105.125 105.129 104.004 106.25 102.625 106.25C101.246 106.25 100.125 105.129 100.125 103.75C100.125 102.371 101.246 101.25 102.625 101.25ZM115.125 111.875H116.375V113.75C116.375 115.129 115.254 116.25 113.875 116.25H100.125C98.7462 116.25 97.625 115.129 97.625 113.75V111.875H98.875V113.75C98.875 114.439 99.4356 115 100.125 115H113.875C114.564 115 115.125 114.439 115.125 113.75V111.875ZM111.375 107.5C113.443 107.5 115.125 105.818 115.125 103.75C115.125 101.682 113.443 100 111.375 100C109.307 100 107.625 101.682 107.625 103.75C107.625 105.818 109.307 107.5 111.375 107.5ZM111.375 101.25C112.754 101.25 113.875 102.371 113.875 103.75C113.875 105.129 112.754 106.25 111.375 106.25C109.996 106.25 108.875 105.129 108.875 103.75C108.875 102.371 109.996 101.25 111.375 101.25Z" fill="#216E7A"/>
<defs>
<filter id="filter0_d_2_3443" x="0" y="0" width="213" height="213" filterUnits="userSpaceOnUse" color-interpolation-filters="sRGB">
<feFlood flood-opacity="0" result="BackgroundImageFix"/>
<feColorMatrix in="SourceAlpha" type="matrix" values="0 0 0 0 0 0 0 0 0 0 0 0 0 0 0 0 0 0 127 0" result="hardAlpha"/>
<feOffset dy="2"/>
<feGaussianBlur stdDeviation="25"/>
<feColorMatrix type="matrix" values="0 0 0 0 0.72549 0 0 0 0 0.835294 0 0 0 0 0.85098 0 0 0 0.6 0"/>
<feBlend mode="normal" in2="BackgroundImageFix" result="effect1_dropShadow_2_3443"/>
<feBlend mode="normal" in="SourceGraphic" in2="effect1_dropShadow_2_3443" result="shape"/>
</filter>
</defs>
</svg>
