<svg width="320" height="891" viewBox="0 0 320 891" fill="none" xmlns="http://www.w3.org/2000/svg">
<path opacity="0.3" d="M163.141 0H-15.3174C-38.3381 0 -57 18.6619 -57 41.6826V781.972C-57 796.787 -49.1365 810.489 -36.3448 817.962L77.3981 884.417C84.7343 888.703 93.2052 890.645 101.676 889.982L292.289 875.073C296.715 874.727 301.057 873.676 305.152 871.959L531.97 776.889C550.525 769.112 560.877 749.191 556.576 729.536L428.264 143.187C424.076 124.052 407.132 110.415 387.545 110.415H315.277C304.793 110.415 294.694 106.464 286.993 99.3497L191.425 11.065C183.724 3.95085 173.625 0 163.141 0Z" fill="#2A8086"/>
</svg>
