<svg width="213" height="213" viewBox="0 0 213 213" fill="none" xmlns="http://www.w3.org/2000/svg">
<g filter="url(#filter0_d_2_3442)">
<circle cx="106.5" cy="104.5" r="56.5" fill="white"/>
</g>
<g clip-path="url(#clip0_2_3442)">
<path opacity="0.8" d="M92 103.125H95.75V115H92V103.125Z" fill="#216E7A"/>
<path d="M122.267 108.009C121.681 107.576 120.899 107.45 120.12 107.666L110.564 110.308C110.682 110.018 110.75 109.702 110.75 109.369C110.75 107.994 109.629 106.875 108.25 106.875H102.389C101.973 106.25 100.913 104.375 99.5 104.375H97V103.75C97 102.716 96.1588 101.875 95.125 101.875H92.625C91.5912 101.875 90.75 102.716 90.75 103.75V114.375C90.75 115.409 91.5912 116.25 92.625 116.25H95.125C96.1588 116.25 97 115.409 97 114.375V113.905L104.587 119.031C105.539 119.676 106.648 120 107.759 120C108.785 120 109.813 119.724 110.723 119.168L122.081 112.23C122.802 111.791 123.25 110.992 123.25 110.147V109.951C123.25 109.182 122.892 108.474 122.267 108.009ZM95.75 114.375C95.75 114.72 95.4694 115 95.125 115H94.5V112.5H93.25V115H92.625C92.2806 115 92 114.72 92 114.375V103.75C92 103.405 92.2806 103.125 92.625 103.125H95.125C95.4694 103.125 95.75 103.406 95.75 103.75V114.375ZM122 110.147C122 110.559 121.781 110.949 121.429 111.164L110.071 118.101C108.593 119.003 106.716 118.962 105.288 117.996L97 112.397V105.625H99.5C100.162 105.625 101.043 106.896 101.43 107.756L101.596 108.125H108.25C108.939 108.125 109.5 108.683 109.5 109.369C109.5 110.061 108.939 110.625 108.25 110.625H102V111.875H108.25H109.5L120.452 108.871C120.853 108.759 121.253 108.813 121.521 109.014C121.826 109.239 122 109.581 122 109.951V110.147Z" fill="#216E7A"/>
<path opacity="0.8" d="M111.062 95.7708C110.583 95.7708 110.124 95.9611 109.785 96.2998C109.446 96.6385 109.256 97.098 109.256 97.577C109.256 98.0561 109.446 98.5155 109.785 98.8543C110.124 99.193 110.583 99.3833 111.062 99.3833C111.541 99.3833 112.001 99.193 112.339 98.8543C112.678 98.5155 112.868 98.0561 112.868 97.577C112.868 97.098 112.678 96.6385 112.339 96.2998C112.001 95.9611 111.541 95.7708 111.062 95.7708V95.7708Z" fill="#216E7A"/>
<path d="M117.746 91.6014C116.751 90.7844 115.452 90.5272 113.875 90.8383C112.894 91.0529 112.216 91.3636 111.743 91.7018L111.423 91.527V90.3519C111.423 90.2616 111.434 90.1434 111.487 90.091C111.595 89.9837 111.978 89.9873 112.313 89.9895L113.953 89.991C115.347 89.991 116.482 88.8564 116.482 87.4624V85.6543H113.23C112.309 85.6543 111.504 86.1504 111.062 86.8875C110.62 86.1504 109.815 85.6543 108.894 85.6543H105.642V87.4624C105.642 88.8564 106.777 89.991 108.171 89.991L109.81 89.9899C110.148 89.9873 110.529 89.9841 110.637 90.0914C110.689 90.1438 110.701 90.262 110.701 90.3523V91.5273L110.359 91.7163C109.886 91.3799 109.211 91.0721 108.242 90.8596C106.672 90.5507 105.37 90.8072 104.375 91.6245C102.415 93.2357 102.393 96.423 102.393 96.5577C102.393 99.3862 104.276 102.307 106.773 103.351C107.365 103.599 107.95 103.722 108.514 103.722C109.438 103.722 110.307 103.393 111.062 102.746C112.277 103.786 113.786 104.003 115.347 103.35C117.847 102.304 119.732 99.3801 119.732 96.548C119.732 96.4128 119.709 93.2154 117.746 91.6014ZM113.23 86.377H115.759V87.4624C115.759 88.4582 114.948 89.2687 113.953 89.2687L112.319 89.2676C111.998 89.2665 111.604 89.2647 111.423 89.3355V89.2687C111.423 88.671 111.909 88.1836 112.507 88.1836H113.591V87.4609H112.507C112.12 87.4609 111.762 87.586 111.468 87.7944C111.647 86.9854 112.367 86.377 113.23 86.377ZM109.98 89.2669C109.922 89.2669 109.864 89.2672 109.805 89.2676L108.171 89.2683C107.175 89.2683 106.365 88.4578 106.365 87.462V86.377H108.894C109.756 86.377 110.477 86.9854 110.656 87.7944C110.362 87.586 110.004 87.4609 109.617 87.4609H108.533V88.1836H109.617C110.215 88.1836 110.701 88.671 110.701 89.2683V89.3341C110.339 89.2755 110.237 89.2669 109.98 89.2669ZM115.068 102.683C113.682 103.263 112.35 103.019 111.316 101.998L111.062 101.748L110.808 101.998C109.772 103.02 108.438 103.265 107.051 102.685C104.844 101.762 103.115 99.07 103.115 96.5574C103.115 96.5277 103.134 93.5789 104.833 92.1824C105.422 91.6982 106.156 91.4554 107.021 91.4554C107.359 91.4554 107.717 91.4926 108.095 91.5671C110.26 92.0415 110.701 92.9896 110.701 93.3976V93.6035H111.423V93.3495C111.423 92.8639 111.932 92.0036 114.022 91.5458C115.369 91.2791 116.466 91.4861 117.285 92.1582C118.985 93.5526 119.009 96.5187 119.009 96.5483C119.009 99.0643 117.278 101.759 115.068 102.683Z" fill="#216E7A"/>
</g>
<defs>
<filter id="filter0_d_2_3442" x="0" y="0" width="213" height="213" filterUnits="userSpaceOnUse" color-interpolation-filters="sRGB">
<feFlood flood-opacity="0" result="BackgroundImageFix"/>
<feColorMatrix in="SourceAlpha" type="matrix" values="0 0 0 0 0 0 0 0 0 0 0 0 0 0 0 0 0 0 127 0" result="hardAlpha"/>
<feOffset dy="2"/>
<feGaussianBlur stdDeviation="25"/>
<feColorMatrix type="matrix" values="0 0 0 0 0.72549 0 0 0 0 0.835294 0 0 0 0 0.85098 0 0 0 0.6 0"/>
<feBlend mode="normal" in2="BackgroundImageFix" result="effect1_dropShadow_2_3442"/>
<feBlend mode="normal" in="SourceGraphic" in2="effect1_dropShadow_2_3442" result="shape"/>
</filter>
<clipPath id="clip0_2_3442">
<rect width="40" height="40" fill="white" transform="translate(87 85)"/>
</clipPath>
</defs>
</svg>
