<svg width="33" height="66" viewBox="0 0 33 66" fill="none" xmlns="http://www.w3.org/2000/svg">
<path d="M13.911 59.1992C14.1595 58.1945 14.0655 56.3397 14.0655 56.3397L18.548 54.3303C18.548 54.3303 18.1387 55.5521 18.2388 56.3397C18.3243 57.0125 18.7254 57.2973 18.8571 57.9626C19.0094 58.7324 18.6788 59.2078 18.8571 59.972C18.9832 60.5124 19.3981 61.2858 19.3981 61.2858C19.3981 61.2858 20.0174 61.1424 20.3255 60.8994C20.7605 60.5563 20.8182 60.1785 21.021 59.6629C21.5624 58.2867 20.8665 55.876 21.021 55.876C21.1756 55.876 25.0398 58.5036 25.0398 58.5036C25.0398 58.5036 24.5209 59.6497 24.4215 60.4357C24.2692 61.6406 24.4496 62.4592 23.6487 63.527C23.3163 63.8033 22.644 63.9907 22.644 63.9907C22.644 63.9907 20.48 66.0001 20.5573 65.4591C20.5573 64.7636 20.7119 63.6816 20.7119 63.6816C20.7119 63.6816 16.0749 65.8455 16.0749 65.4591C15.9203 64.8409 16.6159 63.9907 16.6159 63.9907C16.6159 63.9907 14.9929 64.9954 15.1475 64.5317C15.2555 64.2079 15.4639 63.8505 15.6559 63.561C15.5711 63.6296 15.4776 63.6773 15.3793 63.6816C14.8358 63.7055 14.9156 62.3678 14.9156 62.3678C14.9156 62.3678 12.3653 63.9907 11.206 63.9907C10.9412 63.4786 11.0515 62.5224 11.0515 62.5224C11.0515 62.5224 9.19667 63.1406 8.34656 63.0633C8.50112 62.0587 9.22928 61.7817 9.96951 61.1313C11.2572 59.9997 13.1381 59.5856 13.911 59.1992Z" fill="#0A5D69"/>
<path d="M1.00468 0.386598C0.761655 0.486957 0.468771 0.674154 0.262104 0.816374C0.15513 0.88999 0.187455 1.05088 0.313518 1.08204C0.576551 1.14706 0.953546 1.2409 1.23653 1.314C2.63339 1.67483 3.44268 1.80694 4.79157 2.31868C6.47004 2.95546 7.44066 3.34273 8.88759 4.40533C9.56041 4.89944 9.96626 5.16351 10.5105 5.79643L10.5169 5.80383C11.3145 6.73126 11.8548 7.35963 11.9789 8.57864C12.0125 8.90892 11.9789 9.42875 11.9789 9.42875C11.9789 9.42875 12.7939 9.93183 13.37 10.1243C14.9157 10.6653 20.5574 8.34676 20.5574 5.87372C19.9391 3.9416 18.7256 2.23653 16.5386 1.314C15.9313 1.0578 15.5668 0.953009 14.9157 0.850298C14.0809 0.71862 13.5955 0.802669 12.7518 0.850298C11.4733 0.922468 10.7859 1.34807 9.50586 1.314C8.52869 1.28799 7.99649 1.0913 7.03279 0.927582C5.45719 0.659915 4.61206 0.131748 3.01405 0.154748C2.22422 0.166116 1.73479 0.0850976 1.00468 0.386598Z" fill="#0A5D69"/>
<path d="M16.3068 9.35129C15.2908 9.79303 13.6336 10.0608 13.2822 10.1142C13.2559 10.1182 13.2475 10.1514 13.2678 10.1686L14.7611 11.4379L17.6206 13.6019C17.6206 13.6019 19.5882 15.3202 20.3255 16.7705C20.6761 17.4601 20.7613 17.8966 21.0211 18.6253C21.6687 20.4416 22.4895 23.3396 22.4895 23.3396C22.4895 23.3396 23.0529 25.355 23.8033 26.4309C24.2434 27.0621 24.6136 27.3175 25.1171 27.8993C25.9592 28.8724 26.6256 29.3 27.2037 30.4496C27.935 31.904 27.6507 32.7785 27.9766 34.5457C28.4053 36.8708 29.2904 40.8829 29.2904 40.8829V42.0422C29.2904 43.521 29.4466 44.3584 29.2904 45.829C29.1372 47.2712 28.5176 49.4614 28.5176 49.4614L26.803 54.9623C26.7863 55.0158 26.8593 55.0474 26.8857 54.998C27.214 54.3842 27.8293 53.2174 28.2084 52.3981C28.7494 50.9297 28.9066 49.5094 29.445 47.6838C29.6761 46.9001 30.0379 45.7695 30.1686 45.3633C30.1829 45.319 30.2459 45.3214 30.2573 45.3665L31.4543 50.0796C31.4543 50.0796 32.0726 51.7799 32.6909 51.8571C33.0676 51.5418 32.9227 50.6206 32.9227 50.6206C32.9227 50.6206 32.1886 48.3319 31.8407 46.8337C31.494 45.3401 31.4446 44.4734 31.1452 42.9696C31.0007 42.2439 30.8817 41.8444 30.7588 41.1148C30.6815 39.6464 30.6093 37.2055 30.5269 34.7002C30.4614 32.7084 30.6575 31.5719 30.3724 29.5995C30.2225 28.5626 30.087 27.9879 29.8314 26.9719C29.3331 24.9911 28.8994 23.9183 28.1311 22.0258C27.4556 20.3617 26.8941 19.5085 26.1991 17.8525C25.6481 16.5398 25.5068 15.7328 24.8852 14.452C24.1756 12.9898 23.5072 12.3196 22.7213 10.897C22.1796 9.91628 21.8438 9.37851 21.4075 8.3466C21.055 7.5131 20.6597 6.2149 20.5742 5.93002C20.567 5.90598 20.5363 5.90018 20.5206 5.91979C20.3386 6.14762 19.5159 7.16225 18.8571 7.72834C17.9617 8.49771 17.3894 8.88058 16.3068 9.35129Z" fill="#0A5D69"/>
<path d="M5.87357 34.0046C6.24445 32.5528 7.11011 30.3723 7.11011 30.3723L9.81503 46.6018C9.81503 46.6018 9.35132 48.7658 7.96022 48.3793C7.1101 47.9929 6.1827 47.2974 5.71901 46.37C5.34457 45.6817 5.33037 45.2065 5.17802 44.4379C4.93679 43.2208 4.95138 42.51 4.94617 41.2693C4.93987 39.7678 5.0531 38.9197 5.25039 37.442L5.25531 37.4051C5.43391 36.0672 5.5395 35.3124 5.87357 34.0046Z" fill="#0A5D69" stroke="#0A5D69" stroke-width="0.154567"/>
<path d="M12.7846 10.246L12.7846 10.246C13.2617 10.723 13.5716 10.988 13.9501 11.3115C14.0749 11.4182 14.2071 11.5313 14.3553 11.6604C14.9133 12.1468 15.415 12.4486 15.8686 12.7215C15.9129 12.7481 15.9567 12.7745 16.0001 12.8007C16.485 13.094 16.9286 13.3787 17.4193 13.8759C19.1654 15.6452 20.1439 16.74 20.7713 18.9915C21.5408 21.7532 22.6051 25.169 24.3197 27.6432L24.3453 27.6802L24.3771 27.712C24.5804 27.9153 24.8063 28.1262 25.0333 28.3382C25.0519 28.3556 25.0705 28.373 25.0891 28.3904C25.3375 28.6224 25.5882 28.8579 25.8293 29.1014C26.3158 29.5926 26.7346 30.0884 26.9884 30.5961C27.7932 32.2058 28.7904 36.3732 28.7904 40.6512C28.7904 41.4459 28.8384 42.0909 28.8835 42.6975C28.8903 42.7884 28.897 42.8784 28.9034 42.9679C28.9526 43.6491 28.9894 44.3141 28.9467 45.1637C28.566 47.8958 28.0343 49.9495 27.1924 52.7057C26.3939 54.9684 25.4816 56.7427 24.6067 58.3558C24.0554 58.2786 23.476 58.1248 22.9771 57.9572C22.6809 57.8577 22.42 57.7557 22.2181 57.6665C22.117 57.6219 22.0336 57.5817 21.9695 57.548C21.9478 57.5365 21.9291 57.5263 21.9133 57.5172C21.9094 57.5029 21.9047 57.4844 21.8996 57.4608C21.8874 57.404 21.8764 57.3371 21.8632 57.2518L21.8582 57.2199C21.8468 57.146 21.8337 57.0611 21.818 56.9758C21.7525 56.6201 21.6049 56.006 21.0024 55.7328C20.7893 55.6285 20.5349 55.5732 20.3018 55.532C20.1881 55.5118 20.0376 55.4888 19.8841 55.4653C19.7492 55.4446 19.6119 55.4236 19.4952 55.4039C18.9218 55.307 18.2907 55.1606 17.6709 54.825C17.3276 54.6392 16.8872 54.6769 16.5852 54.9608C16.3096 55.2199 15.8894 55.5884 15.4425 55.8889C15.0665 56.1417 14.7318 56.3044 14.4755 56.3597C14.4104 56.2695 14.3744 56.1551 14.3416 55.982C14.3334 55.9383 14.3253 55.8878 14.3163 55.8317C14.2762 55.5807 14.2186 55.2199 14.0494 54.8803C13.7689 54.3169 13.486 53.9146 13.197 53.5358C13.1244 53.4406 13.0528 53.3486 12.9814 53.2567C12.7664 52.9803 12.5527 52.7057 12.3178 52.3529C12.0565 51.9606 11.827 51.6428 11.6171 51.352C11.1763 50.7412 10.8215 50.2498 10.4386 49.4385C10.0735 48.1848 9.92062 47.0075 9.805 45.7422C9.77502 45.414 9.74747 45.0785 9.71918 44.7339C9.63801 43.7454 9.55074 42.6826 9.38254 41.5077C9.06158 39.2658 8.73255 37.195 8.42613 35.2904C8.38504 35.035 8.34437 34.7826 8.30418 34.5333C8.04548 32.9283 7.80695 31.4484 7.60723 30.0848C7.44298 27.991 7.3579 26.8221 7.3782 24.7357C7.38225 24.3186 7.38299 23.9272 7.38368 23.5547C7.38723 21.6554 7.38986 20.2486 7.82796 18.4336L7.828 18.4336L7.82937 18.4276C8.41521 15.862 9.09905 14.4533 10.3926 12.1694C10.5445 11.9529 10.6897 11.736 10.8318 11.5237C11.0556 11.1895 11.2717 10.8666 11.4942 10.5748C11.6725 10.341 11.8297 10.1626 11.9645 10.0465C12.0833 9.94432 12.139 9.9303 12.1413 9.92873C12.3545 9.92996 12.4728 9.98162 12.5447 10.0266C12.6136 10.0697 12.6523 10.1098 12.7142 10.174C12.7346 10.1951 12.7574 10.2187 12.7846 10.246ZM13.1381 9.89249L13.1382 9.89241L13.1381 9.89249Z" fill="white" stroke="#0A5D69"/>
</svg>
