<svg width="640" height="405" viewBox="0 0 640 405" fill="none" xmlns="http://www.w3.org/2000/svg">
<path opacity="0.3" d="M-115.5 -296L-135.5 259.536L-140.283 326.605C-142.632 359.551 -106.297 380.987 -78.5969 362.996L-6.93765 316.454C-0.451859 312.242 7.11601 310 14.8497 310H218.5H374H529.54C536.398 310 543.141 311.763 549.121 315.121L564.934 323.998C567.305 325.329 569.534 326.899 571.587 328.682L595.59 349.537C597.856 351.506 600.337 353.214 602.985 354.628L652.11 380.855C656.01 382.937 660.227 384.359 664.592 385.061L1135.04 460.796C1160.85 464.951 1183.64 443.635 1181.22 417.604L1117 -273.646L-115.5 -296Z" fill="#2A8086"/>
</svg>
